<svg width="256" height="256" viewBox="0 0 256 256" fill="none" xmlns="http://www.w3.org/2000/svg" role="img" aria-labelledby="title desc">
  <title id="title">China Partner Hub footer icon</title>
  <desc id="desc">Compact China Partner Hub icon for footer and small brand placements</desc>
  <rect width="256" height="256" rx="64" fill="#13232C"/>
  <path d="M52 154C52 109.817 87.8172 74 132 74H145V107H132C106.49 107 85 128.49 85 154C85 179.51 106.49 201 132 201H146V234H132C87.8172 234 52 198.183 52 154Z" fill="#C05C2F"/>
  <path d="M123 180C123 166.193 134.193 155 148 155H176C189.807 155 201 143.807 201 130C201 116.193 189.807 105 176 105H162V72H176C209.137 72 236 98.8629 236 132C236 165.137 209.137 192 176 192H157V234H123V180Z" fill="#0C9F9A"/>
  <circle cx="151" cy="131" r="18" fill="#D7B98A"/>
</svg>
