<svg width="64" height="64" viewBox="0 0 64 64" fill="none" xmlns="http://www.w3.org/2000/svg">
  <rect width="64" height="64" rx="18" fill="#13232C"/>
  <path d="M13 39C13 27.402 22.402 18 34 18H37V26H34C26.268 26 20 32.268 20 40C20 47.732 26.268 54 34 54H37V62H34C22.402 62 13 52.598 13 41V39Z" fill="#C05C2F"/>
  <path d="M31 46C31 41.582 34.582 38 39 38H46C50.418 38 54 34.418 54 30C54 25.582 50.418 22 46 22H42V14H46C54.837 14 62 21.163 62 30C62 38.837 54.837 46 46 46H39V62H31V46Z" fill="#0C7C78"/>
  <circle cx="39" cy="30" r="5.5" fill="#D7B98A"/>
</svg>
